<svg xmlns="http://www.w3.org/2000/svg" xmlns:xlink="http://www.w3.org/1999/xlink" width="1080" zoomAndPan="magnify" viewBox="0 0 810 1012.49997" height="1350" preserveAspectRatio="xMidYMid meet" version="1.0"><defs><clipPath id="a05cc969de"><path d="M 199.242188 101.808594 L 762 101.808594 L 762 350 L 199.242188 350 Z M 199.242188 101.808594 " clip-rule="nonzero"/></clipPath><clipPath id="0cc494ef10"><path d="M 479.992188 101.808594 L 761.421875 101.808594 L 658.324219 349.828125 L 199.242188 349.828125 L 262.683594 231.742188 C 305.671875 151.726562 389.15625 101.808594 479.992188 101.808594 Z M 479.992188 101.808594 " clip-rule="nonzero"/></clipPath><clipPath id="80ef9dbdce"><path d="M 0.242188 0.808594 L 562.582031 0.808594 L 562.582031 248.988281 L 0.242188 248.988281 Z M 0.242188 0.808594 " clip-rule="nonzero"/></clipPath><clipPath id="fb18d64641"><path d="M 280.992188 0.808594 L 562.421875 0.808594 L 459.324219 248.828125 L 0.242188 248.828125 L 63.683594 130.742188 C 106.671875 50.726562 190.15625 0.808594 280.992188 0.808594 Z M 280.992188 0.808594 " clip-rule="nonzero"/></clipPath><clipPath id="69b5846d31"><rect x="0" width="563" y="0" height="249"/></clipPath><clipPath id="949a4849b0"><path d="M 65.074219 405.148438 L 628 405.148438 L 628 654 L 65.074219 654 Z M 65.074219 405.148438 " clip-rule="nonzero"/></clipPath><clipPath id="ebfd340051"><path d="M 345.824219 405.148438 L 627.253906 405.148438 L 524.15625 653.167969 L 65.078125 653.167969 L 128.515625 535.082031 C 171.503906 455.066406 254.992188 405.148438 345.824219 405.148438 Z M 345.824219 405.148438 " clip-rule="nonzero"/></clipPath><clipPath id="799670932c"><path d="M 0.0742188 0.148438 L 562.488281 0.148438 L 562.488281 248.199219 L 0.0742188 248.199219 Z M 0.0742188 0.148438 " clip-rule="nonzero"/></clipPath><clipPath id="2227acfeab"><path d="M 280.824219 0.148438 L 562.253906 0.148438 L 459.15625 248.167969 L 0.078125 248.167969 L 63.515625 130.082031 C 106.503906 50.066406 189.992188 0.148438 280.824219 0.148438 Z M 280.824219 0.148438 " clip-rule="nonzero"/></clipPath><clipPath id="1adc24660a"><rect x="0" width="563" y="0" height="249"/></clipPath><clipPath id="971f50b778"><path d="M 48.578125 652.800781 L 269 652.800781 L 269 909.921875 L 48.578125 909.921875 Z M 48.578125 652.800781 " clip-rule="nonzero"/></clipPath></defs><g clip-path="url(#a05cc969de)"><g clip-path="url(#0cc494ef10)"><g transform="matrix(1, 0, 0, 1, 199, 101)"><g clip-path="url(#69b5846d31)"><g clip-path="url(#80ef9dbdce)"><g clip-path="url(#fb18d64641)"><path fill="#3a393b" d="M 0.242188 0.808594 L 562.238281 0.808594 L 562.238281 248.828125 L 0.242188 248.828125 Z M 0.242188 0.808594 " fill-opacity="1" fill-rule="nonzero"/></g></g></g></g></g></g><g clip-path="url(#949a4849b0)"><g clip-path="url(#ebfd340051)"><g transform="matrix(1, 0, 0, 1, 65, 405)"><g clip-path="url(#1adc24660a)"><g clip-path="url(#799670932c)"><g clip-path="url(#2227acfeab)"><path fill="#3a393b" d="M 0.0742188 0.148438 L 562.070312 0.148438 L 562.070312 248.167969 L 0.0742188 248.167969 Z M 0.0742188 0.148438 " fill-opacity="1" fill-rule="nonzero"/></g></g></g></g></g></g><g clip-path="url(#971f50b778)"><path fill="#3a393b" d="M 268.96875 652.796875 L 162.03125 909.203125 L 97.351562 843.734375 C 47.449219 793.230469 34.449219 716.957031 64.808594 652.796875 Z M 268.96875 652.796875 " fill-opacity="1" fill-rule="nonzero"/></g></svg>